<svg width="128" height="128" viewBox="0 0 128 128" fill="none" xmlns="http://www.w3.org/2000/svg">
<g clip-path="url(#clip0_128_19)">
<path fill-rule="evenodd" clip-rule="evenodd" d="M115.167 30.4431L118.179 23.0547C118.179 23.0547 114.345 18.9499 109.69 14.2979C105.034 9.64646 95.1766 12.3828 95.1766 12.3828L83.9491 -0.3457H64.2327H44.5165L33.2892 12.3828C33.2892 12.3828 23.431 9.64646 18.7758 14.2979C14.1206 18.9499 10.2868 23.0547 10.2868 23.0547L13.2991 30.4431L9.46533 41.3885C9.46533 41.3885 20.7406 84.0641 22.0618 89.2757C24.6634 99.537 26.4431 103.505 33.8368 108.704C41.2305 113.903 54.6483 122.933 56.8392 124.301C59.0299 125.67 61.7681 128 64.2327 128C66.6972 128 69.4358 125.67 71.6267 124.301C73.817 122.933 87.2354 113.903 94.6288 108.704C102.022 103.505 103.803 99.537 106.403 89.2757C107.725 84.0641 119 41.3885 119 41.3885L115.167 30.4431Z" fill="url(#paint0_linear_128_19)"/>
<path d="M78.1981 22.781C79.8413 22.781 92.0271 20.4547 92.0271 20.4547C92.0271 20.4547 106.468 37.8995 106.468 41.6275C106.468 44.7102 105.226 45.9168 103.764 47.3377C103.458 47.6356 103.141 47.9424 102.825 48.2781L91.9972 59.7684C91.8895 59.8824 91.7705 60.002 91.6436 60.1294C90.5628 61.2153 88.9715 62.8145 90.0946 65.4702C90.1696 65.6473 90.2469 65.8278 90.3253 66.0111C91.5561 68.8885 93.0763 72.4406 91.1415 76.0399C89.0832 79.8688 85.5577 82.4242 83.2985 82.0018C81.0394 81.5792 75.7336 78.8085 73.783 77.5433C71.8318 76.2774 65.6476 71.1809 65.6476 69.2315C65.6476 67.6052 70.095 64.8993 72.256 63.585C72.6859 63.3233 73.0249 63.1168 73.2206 62.9854C73.444 62.8348 73.8169 62.6035 74.276 62.3181C76.2486 61.094 79.8091 58.8828 79.8988 57.903C80.0088 56.6942 79.967 56.3399 78.3775 53.3537C78.0396 52.7191 77.6442 52.0388 77.2352 51.336C75.7212 48.7333 74.0267 45.8192 74.4018 43.7316C74.8254 41.3748 78.5202 40.0238 81.6503 38.8793C82.0412 38.7366 82.4236 38.5967 82.7897 38.4585C83.703 38.1139 84.8509 37.684 86.0501 37.235C89.1751 36.0657 92.6471 34.766 93.2196 34.502C94.0127 34.1365 93.8074 33.789 91.4066 33.5617C91.0891 33.5313 90.6942 33.4895 90.2412 33.4416C87.2697 33.1257 81.7885 32.5441 79.1237 33.2864C78.5997 33.432 78.0119 33.5911 77.396 33.758C74.4024 34.568 70.7336 35.5608 70.381 36.1328C70.319 36.2332 70.2586 36.3195 70.2016 36.4007C69.8643 36.8797 69.6443 37.1916 70.0178 39.2274C70.1283 39.8332 70.3568 41.0251 70.6394 42.499C71.4663 46.8154 72.7564 53.5477 72.9188 55.06C72.9414 55.2716 72.9668 55.4758 72.9905 55.6726C73.1975 57.3598 73.3351 58.4829 71.3744 58.9308C71.2114 58.968 71.0393 59.0075 70.8611 59.0481C68.6487 59.5558 65.4046 60.2998 64.2325 60.2998C63.0599 60.2998 59.8135 59.5552 57.6011 59.0475C57.4239 59.0069 57.2534 58.968 57.091 58.9308C55.1296 58.4829 55.2674 57.3598 55.4743 55.6726C55.4983 55.4758 55.5234 55.2716 55.5461 55.06C55.7092 53.5455 57.0023 46.7968 57.8291 42.4816C58.11 41.0155 58.337 39.8309 58.4478 39.2274C58.8207 37.1922 58.6007 36.8797 58.2639 36.4007C58.2065 36.3195 58.146 36.2332 58.0843 36.1328C57.7319 35.5608 54.0634 34.568 51.0696 33.758C50.4533 33.5911 49.8656 33.432 49.3414 33.2864C46.6768 32.5441 41.1964 33.1257 38.2244 33.4416C37.7709 33.4895 37.3758 33.5313 37.0581 33.5617C34.6576 33.789 34.4527 34.1365 35.2453 34.502C35.818 34.766 39.2882 36.0651 42.4127 37.2345C43.6124 37.6835 44.7614 38.1133 45.6756 38.4585C46.0418 38.5967 46.424 38.7366 46.8156 38.8799C49.9452 40.0238 53.6401 41.3748 54.0636 43.7316C54.4386 45.8187 52.7442 48.7322 51.2306 51.3348C50.8217 52.0382 50.4259 52.7185 50.0877 53.3537C48.4982 56.3399 48.4561 56.6942 48.5663 57.903C48.6557 58.8828 52.2154 61.0929 54.1879 62.3175C54.6475 62.6029 55.0208 62.8348 55.2442 62.9854C55.4399 63.1168 55.779 63.3233 56.2082 63.5844C58.3687 64.8988 62.817 67.6047 62.817 69.2315C62.817 71.1809 56.6335 76.2774 54.6826 77.5433C52.7314 78.8085 47.4257 81.5792 45.1665 82.0018C42.9076 82.4242 39.3818 79.8688 37.3236 76.0399C35.3892 72.4411 36.9087 68.8891 38.1398 66.0117C38.2182 65.8284 38.2956 65.6479 38.3707 65.4702C39.4938 62.8139 37.9018 61.2147 36.821 60.1289C36.6945 60.002 36.5751 59.8818 36.468 59.7684L25.6398 48.2781C25.3236 47.9424 25.0076 47.6356 24.7013 47.3383C23.2387 45.9168 21.9971 44.7102 21.9971 41.6275C21.9971 37.8995 36.438 20.4547 36.438 20.4547C36.438 20.4547 48.6237 22.781 50.2669 22.781C51.5779 22.781 54.1094 21.9095 56.7485 21.0013C57.4168 20.7717 58.092 20.5393 58.7558 20.3182C62.0419 19.2233 64.2325 19.2154 64.2325 19.2154C64.2325 19.2154 66.4234 19.2233 69.7092 20.3182C70.3731 20.5393 71.0483 20.7717 71.7168 21.0013C74.3556 21.9095 76.8872 22.781 78.1981 22.781Z" fill="white"/>
<path d="M76.1066 84.485C78.6827 85.8112 80.5104 86.7527 81.2014 87.1846C82.0949 87.7436 81.55 88.798 80.736 89.3733C79.9215 89.9488 68.9788 98.4162 67.9167 99.352C67.7807 99.4714 67.6369 99.6012 67.4868 99.7367C66.463 100.658 65.1581 101.834 64.2326 101.834C63.307 101.834 62.0008 100.657 60.9775 99.7354C60.8279 99.6008 60.6842 99.4714 60.5487 99.352C59.4865 98.4162 48.5439 89.9488 47.7295 89.3733C46.9151 88.798 46.3702 87.7436 47.2641 87.1846C47.9556 86.7521 49.7849 85.8101 52.3633 84.4823C53.1191 84.0929 53.9393 83.671 54.814 83.2186C58.6727 81.2234 63.482 79.5267 64.2326 79.5267C64.9834 79.5267 69.7922 81.2234 73.6517 83.2186C74.5283 83.6717 75.3496 84.0951 76.1066 84.485Z" fill="white"/>
</g>
<defs>
<linearGradient id="paint0_linear_128_19" x1="9.46533" y1="63.8271" x2="119" y2="63.8271" gradientUnits="userSpaceOnUse">
<stop stop-color="#F0451D"/>
<stop offset="0.5" stop-color="#EF3520"/>
<stop offset="1" stop-color="#EE2522"/>
</linearGradient>
<clipPath id="clip0_128_19">
<rect width="128" height="128" fill="white"/>
</clipPath>
</defs>
</svg>
