<svg width="128" height="128" viewBox="0 0 128 128" fill="none" xmlns="http://www.w3.org/2000/svg">
<g clip-path="url(#clip0_131_21)">
<path d="M0 21.6338C0 9.68581 9.68581 0 21.6338 0H106.366C118.314 0 128 9.68581 128 21.6338V106.366C128 118.314 118.314 128 106.366 128H21.6338C9.68581 128 0 118.314 0 106.366V21.6338Z" fill="#FFB319"/>
<path d="M71.7392 83.8061H55.814C51.5048 83.8061 50.7554 79.1348 51.5048 77.2663C51.8795 76.3321 52.8163 75.0241 53.5657 74.0899C56.5634 75.7715 60.1232 76.7058 63.8703 76.7058C75.8611 76.7058 85.4162 66.9896 85.4162 55.218C85.4162 48.8652 82.6059 43.2597 78.2967 39.149L78.8588 38.5884C79.9829 37.4673 81.6691 36.7199 83.3553 36.9068L85.9783 37.0937V26.8169H81.4817C76.2358 26.8169 71.9266 29.9934 70.053 34.4777C68.1795 33.9172 66.1186 33.5435 64.0577 33.5435C52.0669 33.5435 42.5117 43.2597 42.5117 55.0312C42.5117 59.7024 44.0106 64.1869 46.6336 67.737C46.2589 68.1107 45.6968 68.4844 45.3221 68.6713C45.1348 68.858 44.9474 69.0449 44.76 69.2318C40.4509 73.3425 38.39 78.5742 39.5141 84.5535C40.0761 87.7299 42.8865 91.0936 45.6968 92.9613C47.5704 94.2693 50.006 94.83 52.4416 94.83L70.4277 94.0827C72.4886 94.0827 74.3622 95.0175 75.4863 96.8852L77.7346 101.183L88.7886 97.4458L86.915 93.3354C84.1047 87.5431 78.2967 83.8061 71.7392 83.8061ZM64.0577 44.9413C69.6783 44.9413 74.3622 49.6125 74.3622 55.218C74.3622 60.8235 69.6783 65.4948 64.0577 65.4948C58.437 65.4948 53.7531 60.8235 53.7531 55.218C53.7531 49.4258 58.2496 44.9413 64.0577 44.9413Z" fill="#18181A"/>
</g>
<defs>
<clipPath id="clip0_131_21">
<rect width="128" height="128" fill="white"/>
</clipPath>
</defs>
</svg>
