<svg width="128" height="125" viewBox="0 0 128 125" fill="none" xmlns="http://www.w3.org/2000/svg">
<g clip-path="url(#clip0_129_6)">
<path d="M96.1977 69.0395C96.4096 68.9465 96.6448 68.9246 96.8698 68.9768C100.057 69.7254 106.131 71.3461 117.355 74.8335C117.617 74.9223 117.889 74.9748 118.164 74.9898C118.418 74.9989 118.671 74.9398 118.896 74.819C119.121 74.6979 119.311 74.519 119.447 74.3001C119.583 74.0812 119.66 73.8301 119.671 73.5712C119.682 73.3127 119.626 73.0558 119.508 72.8261C119.359 72.5108 119.165 72.2167 118.985 71.9173C114.804 64.9223 110.041 58.3468 105.047 51.94C99.4796 44.8001 93.655 37.884 87.4537 31.3071C83.5812 27.1975 74.7174 17.6788 72.5284 15.7388L72.5274 15.7377C72.4127 15.6292 64.1769 7.82613 59.1871 5.32807C51.2014 1.3312 42.8015 0.052377 34.0332 1.70121C24.9383 3.41194 17.1849 7.70002 11.093 14.7934C3.38124 23.7733 0.0846862 34.281 1.21723 46.1506C1.8638 52.9176 4.16211 59.1107 7.90032 64.7522C9.60745 67.3266 11.5942 69.6128 13.8095 71.7948C16.5979 74.5678 45.5511 96.2826 57.5799 104.757C62.9435 108.962 68.2075 113.305 73.5019 117.609C74.662 118.552 75.7601 119.569 76.8675 120.579C77.5406 121.188 78.2993 121.353 78.9057 121.001C79.512 120.649 79.7059 120.096 79.5411 119.164C79.4498 118.657 79.3695 118.148 79.2642 117.646C77.9087 111.198 75.5898 105.094 72.8429 99.1454C72.7169 98.871 72.5951 98.5996 72.4565 98.3268C72.3588 98.1229 72.3256 97.8932 72.3613 97.6696C72.397 97.4458 72.4998 97.2385 72.6559 97.0766C72.8116 96.9144 73.0132 96.8052 73.2325 96.7638C73.4517 96.7223 73.6784 96.7507 73.8812 96.8453C82.713 100.946 91.3026 105.53 99.7717 110.341C107.351 114.648 114.857 119.085 122.395 123.466C123.691 124.223 124.969 124.18 125.995 123.307C127.021 122.433 127.299 121.208 126.655 119.732C125.032 116.005 123.501 112.235 121.679 108.618C114.967 95.2949 106.525 83.165 96.8213 71.9256C96.4918 71.5443 96.1595 71.1674 95.8246 70.7903C95.6696 70.6165 95.5733 70.3971 95.5495 70.1642C95.5258 69.931 95.5758 69.6961 95.6924 69.494C95.8091 69.2916 95.986 69.1324 96.1977 69.0395Z" fill="url(#paint0_linear_129_6)"/>
<path fill-rule="evenodd" clip-rule="evenodd" d="M14.1029 41.3581C14.5182 26.9328 26.3187 15.0232 41.2177 15.0576C56.0323 14.9688 68.779 27.2362 68.3124 43.0966C68.1879 47.4437 67.0251 51.5777 65.0435 55.2267L77.3254 65.7964C79.7253 67.8617 80.0004 71.4859 77.9396 73.8909C75.8791 76.296 72.263 76.5713 69.863 74.5059L57.5714 63.9279C53.0322 67.3702 47.3393 69.4304 41.0551 69.4112C26.2774 69.3656 13.6491 57.1896 14.1029 41.3581Z" fill="#202C46"/>
<path d="M40.9741 56.7597C49.1078 56.7597 55.7014 50.1515 55.7014 41.9997C55.7014 33.848 49.1078 27.2397 40.9741 27.2397C32.8405 27.2397 26.2468 33.848 26.2468 41.9997C26.2468 50.1515 32.8405 56.7597 40.9741 56.7597Z" fill="white"/>
</g>
<defs>
<linearGradient id="paint0_linear_129_6" x1="43.5676" y1="41.1461" x2="65.8624" y2="112.032" gradientUnits="userSpaceOnUse">
<stop stop-color="#6573FF"/>
<stop offset="1" stop-color="#29DDCC"/>
</linearGradient>
<clipPath id="clip0_129_6">
<rect width="126" height="123" fill="white" transform="translate(1 1)"/>
</clipPath>
</defs>
</svg>
