<svg width="128" height="128" viewBox="0 0 128 128" fill="none" xmlns="http://www.w3.org/2000/svg">
<rect width="128" height="128" rx="64" fill="white"/>
<path fill-rule="evenodd" clip-rule="evenodd" d="M113 42.0419C113 42.395 112.888 42.7136 112.672 43.0064C112.448 43.2906 112.216 43.4369 111.948 43.4369C109.802 43.6436 108.035 44.3325 106.674 45.5122C105.303 46.6833 103.898 48.9308 102.442 52.2375L80.2041 102.303C80.0575 102.768 79.6524 103 78.9801 103C78.4544 103 78.0493 102.768 77.7562 102.303L65.2843 76.2453L50.942 102.303C50.6489 102.768 50.2438 103 49.718 103C49.0802 103 48.6579 102.768 48.451 102.303L26.6014 52.2375C25.2396 49.1289 23.8002 46.9589 22.2832 45.7275C20.7748 44.4961 18.6631 43.7297 15.9653 43.4369C15.7326 43.4369 15.5085 43.3164 15.3103 43.0667C15.1034 42.8256 15 42.5414 15 42.2228C15 41.4047 15.2327 41 15.6982 41C17.6461 41 19.6802 41.0861 21.8091 41.2583C23.7829 41.4392 25.6447 41.5253 27.3858 41.5253C29.1613 41.5253 31.2558 41.4392 33.6691 41.2583C36.1945 41.0861 38.4355 41 40.3835 41C40.8489 41 41.0816 41.4047 41.0816 42.2228C41.0816 43.0322 40.9351 43.4369 40.6507 43.4369C38.7027 43.5833 37.1685 44.0828 36.048 44.9181C34.9275 45.7619 34.3673 46.8642 34.3673 48.2333C34.3673 48.9308 34.6 49.8006 35.0654 50.8425L53.1226 91.5817L63.3708 72.2411L53.8208 52.2375C52.1055 48.6725 50.692 46.3647 49.5887 45.3314C48.4855 44.3067 46.8134 43.6694 44.5724 43.4369C44.3655 43.4369 44.1759 43.3164 43.9863 43.0667C43.7967 42.8256 43.7018 42.5414 43.7018 42.2228C43.7018 41.4047 43.9001 41 44.3138 41C46.2617 41 48.0459 41.0861 49.6749 41.2583C51.2436 41.4392 52.9157 41.5253 54.6913 41.5253C56.4324 41.5253 58.2769 41.4392 60.2248 41.2583C62.2331 41.0861 64.2069 41 66.1548 41C66.6202 41 66.8529 41.4047 66.8529 42.2228C66.8529 43.0322 66.715 43.4369 66.422 43.4369C62.5261 43.7039 60.5782 44.8061 60.5782 46.7522C60.5782 47.6219 61.0264 48.9739 61.9314 50.7994L68.2493 63.6128L74.5326 51.8931C75.4032 50.2397 75.8427 48.8447 75.8427 47.7081C75.8427 45.0386 73.8948 43.6178 69.9989 43.4369C69.6456 43.4369 69.4732 43.0322 69.4732 42.2228C69.4732 41.93 69.5594 41.6544 69.7318 41.3961C69.9128 41.1292 70.0851 41 70.2575 41C71.6538 41 73.369 41.0861 75.4032 41.2583C77.3511 41.4392 78.9543 41.5253 80.2041 41.5253C81.1004 41.5253 82.4278 41.4478 84.1689 41.3014C86.3754 41.1033 88.2285 41 89.711 41C90.0558 41 90.2281 41.3444 90.2281 42.0419C90.2281 42.9719 89.9092 43.4369 89.2714 43.4369C87.0046 43.6694 85.1773 44.2981 83.7982 45.3142C82.4192 46.3303 80.6953 48.6381 78.6354 52.2375L70.2575 67.7117L81.6004 90.7981L98.3474 51.8931C98.9249 50.4722 99.2179 49.1633 99.2179 47.975C99.2179 45.1247 97.27 43.6178 93.3741 43.4369C93.0208 43.4369 92.8484 43.0322 92.8484 42.2228C92.8484 41.4047 93.1069 41 93.6327 41C95.0549 41 96.7442 41.0861 98.6922 41.2583C100.494 41.4392 102.011 41.5253 103.226 41.5253C104.51 41.5253 105.993 41.4392 107.673 41.2583C109.423 41.0861 110.992 41 112.388 41C112.793 41 113 41.3444 113 42.0419Z" fill="black"/>
</svg>
