<svg width="128" height="128" viewBox="0 0 128 128" fill="none" xmlns="http://www.w3.org/2000/svg">
<path d="M51.4366 83.0461L84.1107 64.0862L51.4366 45.2186V83.0461ZM14.8058 105.596C9.37532 104.123 5.14162 99.7971 3.57704 94.4588C1 84.6107 1 64.0862 1 64.0862C1 64.0862 1 43.5618 3.57704 33.8058C5.14162 28.3757 9.37532 24.1416 14.8058 22.6691C24.5618 20 63.9539 20 63.9539 20C63.9539 20 103.438 20 113.195 22.6691C118.717 24.1416 122.858 28.3757 124.331 33.8058C127 43.5618 127 64.0862 127 64.0862C127 64.0862 127 84.6107 124.331 94.4588C122.858 99.7971 118.717 104.123 113.195 105.596C103.438 108.265 63.9539 108.265 63.9539 108.265C63.9539 108.265 24.5618 108.265 14.8058 105.596Z" fill="#ED1838"/>
<path d="M51.4365 83.0459L84.1106 64.086L51.4365 45.2184V83.0459Z" fill="white"/>
</svg>
